<svg width="398" height="135" viewBox="0 0 795 224" fill="none" xmlns="http://www.w3.org/2000/svg">
<g clip-path="url(#clip0)">
<rect width="600" height="224" fill="white"/>
<path d="M107.117 141.219C103.953 145.008 99.4805 147.957 93.6992 150.066C87.918 152.137 81.5117 153.172 74.4805 153.172C67.0977 153.172 60.6133 151.57 55.0273 148.367C49.4805 145.125 45.1836 140.438 42.1367 134.305C39.1289 128.172 37.5859 120.965 37.5078 112.684V106.883C37.5078 98.3672 38.9336 91.0039 41.7852 84.793C44.6758 78.543 48.8164 73.7773 54.207 70.4961C59.6367 67.1758 65.9844 65.5156 73.25 65.5156C83.3672 65.5156 91.2773 67.9375 96.9805 72.7812C102.684 77.5859 106.062 84.5977 107.117 93.8164H90.0078C89.2266 88.9336 87.4883 85.3594 84.793 83.0938C82.1367 80.8281 78.4648 79.6953 73.7773 79.6953C67.8008 79.6953 63.25 81.9414 60.125 86.4336C57 90.9258 55.418 97.6055 55.3789 106.473V111.922C55.3789 120.867 57.0781 127.625 60.4766 132.195C63.875 136.766 68.8555 139.051 75.418 139.051C82.0195 139.051 86.7266 137.645 89.5391 134.832V120.125H73.543V107.176H107.117V141.219ZM253.543 119.832C253.543 110.105 255.848 102.273 260.457 96.3359C265.105 90.3984 271.355 87.4297 279.207 87.4297C286.16 87.4297 291.57 89.8125 295.438 94.5781L296.141 88.6016H311.492V149.891C311.492 155.438 310.223 160.262 307.684 164.363C305.184 168.465 301.648 171.59 297.078 173.738C292.508 175.887 287.156 176.961 281.023 176.961C276.375 176.961 271.844 176.023 267.43 174.148C263.016 172.312 259.676 169.93 257.41 167L264.91 156.688C269.129 161.414 274.246 163.777 280.262 163.777C284.754 163.777 288.25 162.566 290.75 160.145C293.25 157.762 294.5 154.363 294.5 149.949V146.551C290.594 150.965 285.457 153.172 279.09 153.172C271.473 153.172 265.301 150.203 260.574 144.266C255.887 138.289 253.543 130.379 253.543 120.535V119.832ZM270.477 121.062C270.477 126.805 271.629 131.316 273.934 134.598C276.238 137.84 279.402 139.461 283.426 139.461C288.582 139.461 292.273 137.527 294.5 133.66V107C292.234 103.133 288.582 101.199 283.543 101.199C279.48 101.199 276.277 102.859 273.934 106.18C271.629 109.5 270.477 114.461 270.477 121.062ZM519.324 123.582C518.66 132.762 515.262 139.988 509.129 145.262C503.035 150.535 494.988 153.172 484.988 153.172C474.051 153.172 465.438 149.5 459.148 142.156C452.898 134.773 449.773 124.656 449.773 111.805V106.59C449.773 98.3867 451.219 91.1602 454.109 84.9102C457 78.6602 461.121 73.875 466.473 70.5547C471.863 67.1953 478.113 65.5156 485.223 65.5156C495.066 65.5156 502.996 68.1523 509.012 73.4258C515.027 78.6992 518.504 86.1016 519.441 95.6328H501.863C501.434 90.125 499.891 86.1406 497.234 83.6797C494.617 81.1797 490.613 79.9297 485.223 79.9297C479.363 79.9297 474.969 82.0391 472.039 86.2578C469.148 90.4375 467.664 96.9414 467.586 105.77V112.215C467.586 121.434 468.973 128.172 471.746 132.43C474.559 136.688 478.973 138.816 484.988 138.816C490.418 138.816 494.461 137.586 497.117 135.125C499.812 132.625 501.355 128.777 501.746 123.582H519.324ZM645.066 88.6016L645.594 95.9258C650.125 90.2617 656.199 87.4297 663.816 87.4297C670.535 87.4297 675.535 89.4023 678.816 93.3477C682.098 97.293 683.777 103.191 683.855 111.043V152H666.922V111.453C666.922 107.859 666.141 105.262 664.578 103.66C663.016 102.02 660.418 101.199 656.785 101.199C652.02 101.199 648.445 103.23 646.062 107.293V152H629.129V88.6016H645.066Z" fill="#0856D7"/>
<path d="M117.664 119.715C117.664 113.426 118.875 107.82 121.297 102.898C123.719 97.9766 127.195 94.168 131.727 91.4727C136.297 88.7773 141.59 87.4297 147.605 87.4297C156.16 87.4297 163.133 90.0469 168.523 95.2812C173.953 100.516 176.98 107.625 177.605 116.609L177.723 120.945C177.723 130.672 175.008 138.484 169.578 144.383C164.148 150.242 156.863 153.172 147.723 153.172C138.582 153.172 131.277 150.242 125.809 144.383C120.379 138.523 117.664 130.555 117.664 120.477V119.715ZM134.598 120.945C134.598 126.961 135.73 131.57 137.996 134.773C140.262 137.938 143.504 139.52 147.723 139.52C151.824 139.52 155.027 137.957 157.332 134.832C159.637 131.668 160.789 126.629 160.789 119.715C160.789 113.816 159.637 109.246 157.332 106.004C155.027 102.762 151.785 101.141 147.605 101.141C143.465 101.141 140.262 102.762 137.996 106.004C135.73 109.207 134.598 114.188 134.598 120.945ZM385.613 153.172C376.316 153.172 368.738 150.32 362.879 144.617C357.059 138.914 354.148 131.316 354.148 121.824V120.184C354.148 113.816 355.379 108.133 357.84 103.133C360.301 98.0938 363.777 94.2266 368.27 91.5312C372.801 88.7969 377.957 87.4297 383.738 87.4297C392.41 87.4297 399.227 90.1641 404.188 95.6328C409.188 101.102 411.688 108.855 411.688 118.895V125.809H371.316C371.863 129.949 373.504 133.27 376.238 135.77C379.012 138.27 382.508 139.52 386.727 139.52C393.25 139.52 398.348 137.156 402.02 132.43L410.34 141.746C407.801 145.34 404.363 148.152 400.027 150.184C395.691 152.176 390.887 153.172 385.613 153.172ZM383.68 101.141C380.32 101.141 377.586 102.273 375.477 104.539C373.406 106.805 372.078 110.047 371.492 114.266H395.047V112.918C394.969 109.168 393.953 106.277 392 104.246C390.047 102.176 387.273 101.141 383.68 101.141ZM547.625 152H530.633V62H547.625V152ZM725.926 153.172C716.629 153.172 709.051 150.32 703.191 144.617C697.371 138.914 694.461 131.316 694.461 121.824V120.184C694.461 113.816 695.691 108.133 698.152 103.133C700.613 98.0938 704.09 94.2266 708.582 91.5312C713.113 88.7969 718.27 87.4297 724.051 87.4297C732.723 87.4297 739.539 90.1641 744.5 95.6328C749.5 101.102 752 108.855 752 118.895V125.809H711.629C712.176 129.949 713.816 133.27 716.551 135.77C719.324 138.27 722.82 139.52 727.039 139.52C733.562 139.52 738.66 137.156 742.332 132.43L750.652 141.746C748.113 145.34 744.676 148.152 740.34 150.184C736.004 152.176 731.199 153.172 725.926 153.172ZM723.992 101.141C720.633 101.141 717.898 102.273 715.789 104.539C713.719 106.805 712.391 110.047 711.805 114.266H735.359V112.918C735.281 109.168 734.266 106.277 732.312 104.246C730.359 102.176 727.586 101.141 723.992 101.141Z" fill="#EF5E52"/>
<path d="M185.516 119.715C185.516 113.426 186.727 107.82 189.148 102.898C191.57 97.9766 195.047 94.168 199.578 91.4727C204.148 88.7773 209.441 87.4297 215.457 87.4297C224.012 87.4297 230.984 90.0469 236.375 95.2812C241.805 100.516 244.832 107.625 245.457 116.609L245.574 120.945C245.574 130.672 242.859 138.484 237.43 144.383C232 150.242 224.715 153.172 215.574 153.172C206.434 153.172 199.129 150.242 193.66 144.383C188.23 138.523 185.516 130.555 185.516 120.477V119.715ZM202.449 120.945C202.449 126.961 203.582 131.57 205.848 134.773C208.113 137.938 211.355 139.52 215.574 139.52C219.676 139.52 222.879 137.957 225.184 134.832C227.488 131.668 228.641 126.629 228.641 119.715C228.641 113.816 227.488 109.246 225.184 106.004C222.879 102.762 219.637 101.141 215.457 101.141C211.316 101.141 208.113 102.762 205.848 106.004C203.582 109.207 202.449 114.188 202.449 120.945ZM558.992 119.715C558.992 113.426 560.203 107.82 562.625 102.898C565.047 97.9766 568.523 94.168 573.055 91.4727C577.625 88.7773 582.918 87.4297 588.934 87.4297C597.488 87.4297 604.461 90.0469 609.852 95.2812C615.281 100.516 618.309 107.625 618.934 116.609L619.051 120.945C619.051 130.672 616.336 138.484 610.906 144.383C605.477 150.242 598.191 153.172 589.051 153.172C579.91 153.172 572.605 150.242 567.137 144.383C561.707 138.523 558.992 130.555 558.992 120.477V119.715ZM575.926 120.945C575.926 126.961 577.059 131.57 579.324 134.773C581.59 137.938 584.832 139.52 589.051 139.52C593.152 139.52 596.355 137.957 598.66 134.832C600.965 131.668 602.117 126.629 602.117 119.715C602.117 113.816 600.965 109.246 598.66 106.004C596.355 102.762 593.113 101.141 588.934 101.141C584.793 101.141 581.59 102.762 579.324 106.004C577.059 109.207 575.926 114.188 575.926 120.945Z" fill="#F8C83C"/>
<path d="M342.43 152H325.438V62H342.43V152Z" fill="#4CD370"/>
</g>
<defs>
<clipPath id="clip0">
<rect width="795" height="224" fill="white"/>
</clipPath>
</defs>
</svg>
